<svg xmlns="http://www.w3.org/2000/svg" baseProfile="basic" viewBox="0 0 48 48"><path fill-rule="evenodd" d="M8.003,47.999	c-1.928,0-7-0.221-7-0.499c0-0.279,5.072-0.499,7-0.499V47.999z" clip-rule="evenodd"/><path fill-rule="evenodd" d="M40,47.999c1.928,0,7-0.221,7-0.499	c0-0.279-5.072-0.499-7-0.499V47.999z" clip-rule="evenodd"/><path fill-rule="evenodd" d="M5.003,46.002	c0-2.135,2.949-3.851,6-6h26c3.051,2.149,6,3.865,6,6c0,1.211-1.108,2-3,2h-32C6.111,48.002,5.003,47.213,5.003,46.002z M37.003,45.002c0-0.592-0.416-1.295-1.508-2.236c-0.668-0.576-1.472-1.145-2.365-1.765H11.876c-0.893,0.62-1.697,1.189-2.365,1.765	c-1.092,0.941-1.508,1.644-1.508,2.236c0,0.703,0.945,1,2,1h25C36.057,46.002,37.003,45.705,37.003,45.002z M11.001,38.999v-0.996	h-0.493c-0.277,0-0.501-0.224-0.501-0.5c0-0.261,0.199-0.475,0.451-0.499h7.041c0.276,0,0.5-0.224,0.5-0.501	c0-0.276-0.224-0.5-0.501-0.5h-6.995c-0.277,0-0.501-0.224-0.501-0.5c0-0.261,0.199-0.475,0.451-0.499h7.043	c0.276,0,0.5-0.224,0.5-0.501c0-0.276-0.224-0.5-0.501-0.5h-6.985c-0.277,0-0.501-0.224-0.501-0.5c0-0.261,0.199-0.475,0.451-0.499	h7.041c0.276,0,0.5-0.224,0.5-0.501c0-0.276-0.224-0.5-0.501-0.5h-6.995c-0.277,0-0.501-0.224-0.501-0.5	c0-0.261,0.199-0.475,0.451-0.499h7.043c0.276,0,0.5-0.224,0.5-0.501c0-0.276-0.224-0.5-0.501-0.5h-6.985	c-0.277,0-0.501-0.224-0.501-0.5c0-0.261,0.199-0.475,0.451-0.499h7.041c0.276,0,0.5-0.224,0.5-0.501c0-0.276-0.224-0.5-0.501-0.5	h-6.995c-0.277,0-0.501-0.224-0.501-0.5c0-0.261,0.199-0.475,0.451-0.499h7.043c0.276,0,0.5-0.224,0.5-0.501	c0-0.276-0.224-0.5-0.501-0.5h-6.985c-0.277,0-0.501-0.224-0.501-0.5c0-0.261,0.199-0.475,0.451-0.499h7.041	c0.276,0,0.5-0.224,0.5-0.501c0-0.276-0.224-0.5-0.501-0.5h-6.995c-0.277,0-0.501-0.224-0.501-0.5c0-0.261,0.199-0.475,0.451-0.499	h7.043c0.276,0,0.5-0.224,0.5-0.501c0-0.276-0.224-0.5-0.501-0.5h-6.985c-0.277,0-0.501-0.224-0.501-0.5	c0-0.261,0.199-0.475,0.451-0.499h7.041c0.276,0,0.5-0.224,0.5-0.501c0-0.276-0.224-0.5-0.501-0.5h-6.995	c-0.277,0-0.501-0.224-0.501-0.5c0-0.261,0.199-0.475,0.451-0.499h7.043c0.276,0,0.5-0.224,0.5-0.501c0-0.276-0.224-0.5-0.501-0.5	h-6.985c-0.277,0-0.501-0.224-0.501-0.5c0-0.261,0.199-0.475,0.451-0.499h7.041c0.276,0,0.5-0.224,0.5-0.501	c0-0.276-0.224-0.5-0.501-0.5h-6.995c-0.277,0-0.501-0.224-0.501-0.5c0-0.261,0.199-0.475,0.451-0.499h7.043	c0.276,0,0.5-0.224,0.5-0.501c0-0.276-0.224-0.5-0.501-0.5l-6.492,0.001v-1.001h26.001l-0.001,1.001l-1.508-0.001	c-0.277,0-0.501,0.224-0.501,0.5c0,0.277,0.224,0.501,0.5,0.501h2.057c0.253,0.023,0.453,0.237,0.453,0.499	c0,0.276-0.224,0.5-0.501,0.5h-2.009c-0.277,0-0.501,0.224-0.501,0.5c0,0.277,0.224,0.501,0.5,0.501h2.057	c0.253,0.023,0.453,0.237,0.453,0.499c0,0.276-0.224,0.5-0.501,0.5h-2.007c-0.277,0-0.501,0.224-0.501,0.5	c0,0.277,0.224,0.501,0.5,0.501h2.057c0.253,0.023,0.453,0.237,0.453,0.499c0,0.276-0.224,0.5-0.501,0.5h-2.009	c-0.277,0-0.501,0.224-0.501,0.5c0,0.277,0.224,0.501,0.5,0.501h2.057c0.253,0.023,0.453,0.237,0.453,0.499	c0,0.276-0.224,0.5-0.501,0.5h-2.007c-0.277,0-0.501,0.224-0.501,0.5c0,0.277,0.224,0.501,0.5,0.501h2.057	c0.253,0.023,0.453,0.237,0.453,0.499c0,0.276-0.224,0.5-0.501,0.5h-2.009c-0.277,0-0.501,0.224-0.501,0.5	c0,0.277,0.224,0.501,0.5,0.501h2.057c0.253,0.023,0.453,0.237,0.453,0.499c0,0.276-0.224,0.5-0.501,0.5h-2.007	c-0.277,0-0.501,0.224-0.501,0.5c0,0.277,0.224,0.501,0.5,0.501h2.057c0.253,0.023,0.453,0.237,0.453,0.499	c0,0.276-0.224,0.5-0.501,0.5h-2.009c-0.277,0-0.501,0.224-0.501,0.5c0,0.277,0.224,0.501,0.5,0.501h2.057	c0.253,0.023,0.453,0.237,0.453,0.499c0,0.276-0.224,0.5-0.501,0.5h-2.007c-0.277,0-0.501,0.224-0.501,0.5	c0,0.277,0.224,0.501,0.5,0.501h2.057c0.253,0.023,0.453,0.237,0.453,0.499c0,0.276-0.224,0.5-0.501,0.5h-2.009	c-0.277,0-0.501,0.224-0.501,0.5c0,0.277,0.224,0.501,0.5,0.501h2.057c0.253,0.023,0.453,0.237,0.453,0.499	c0,0.276-0.224,0.5-0.501,0.5h-2.007c-0.277,0-0.501,0.224-0.501,0.5c0,0.277,0.224,0.501,0.5,0.501h2.057	c0.253,0.023,0.453,0.237,0.453,0.499c0,0.276-0.224,0.5-0.501,0.5h-2.009c-0.277,0-0.501,0.224-0.501,0.5	c0,0.277,0.224,0.501,0.5,0.501h2.057c0.253,0.023,0.453,0.237,0.453,0.499c0,0.276-0.224,0.5-0.501,0.5h-0.499l0.001,0.996H11.001z M5.003,6.002c0-1.211,1.108-2,3-2h32c1.892,0,3,0.789,3,2c0,2.135-2.949,3.851-6,6h-26C7.952,9.853,5.003,8.137,5.003,6.002z M37.003,6.002c0-0.703-0.945-1-2-1h-25c-1.055,0-2,0.423-2,1c0,0.483,1.121,1,1.811,1h25.656	C36.244,7.002,37.003,6.302,37.003,6.002z" clip-rule="evenodd"/></svg>