<svg xmlns="http://www.w3.org/2000/svg" baseProfile="basic" viewBox="0 0 48 48"><path fill-rule="evenodd" d="M20.688,47.757	c0.231-1.268,0.476-2.532,0.737-3.789c-0.337-0.017-0.672-0.037-1.008-0.063c-0.252,1.223-0.491,2.448-0.715,3.68	c-5.624-1.111-10.479-4.367-13.677-8.879C16.889,44.845,34.235,45,43.897,35.377c-2.227,4.716-6.081,8.516-10.836,10.672	c-0.067-1.124-0.14-2.227-0.217-3.308c-0.325,0.091-0.655,0.177-0.983,0.259c0.08,1.132,0.155,2.287,0.223,3.464	c-2.505,0.993-5.237,1.539-8.095,1.539C22.867,48.003,21.764,47.919,20.688,47.757z M4.809,36.788	c-0.344-0.609-0.66-1.239-0.947-1.884c0.449-11.871,14.405-24.903,26.601-24.903c4.968,0,10.293,2.077,12.875,5.661	c-3.465-2.957-8.904-4.661-12.875-4.661c-8.223,0-25.189,10.925-22.623,26.42c0.295,0.153,0.593,0.301,0.896,0.445	c0.073-0.004,0.147-0.007,0.22-0.011C6.049,22.817,22.536,12.001,30.464,12.001c4.919,0,11.899,2.723,14.345,6.872	c0.241,0.704,0.448,1.424,0.617,2.157c-0.376-0.505-0.516-0.656-1.085-0.86c-10.217-2.645-20.847-0.664-31.709,4.291	c-0.317,0.495-0.616,1.001-0.892,1.52c11.713-5.589,23.035-7.712,33.799-4.435c0.177,0.859,0.304,1.736,0.377,2.629	C34.62,21.531,22.8,23.509,10.691,28.308c-0.151,0.408-0.288,0.821-0.411,1.241c12.371-5.023,24.337-7.075,35.697-4.332	c0.009,0.261,0.015,0.523,0.015,0.784c0,0.853-0.049,1.695-0.144,2.521c-6.103,6.376-18.571,9.352-35.001,10.243	c0.82,0.313,1.665,0.595,2.528,0.845c14.277-0.983,25.616-3.685,31.981-9.239c0.104-0.105,0.207-0.228,0.267-0.339	c-0.168,0.9-0.389,1.78-0.661,2.637C35.705,44.513,15.756,44.18,4.809,36.788z M30.576,38.997c-0.711-0.103-1.417-0.211-2.12-0.328	c-0.897,0.187-1.815,0.361-2.752,0.524c1.635,0.316,3.291,0.589,4.961,0.827C30.636,39.676,30.607,39.336,30.576,38.997z M32.6,39.673c-0.057-0.659-0.116-1.309-0.177-1.953c-0.324,0.089-0.651,0.175-0.98,0.259c0.061,0.649,0.121,1.307,0.179,1.973	C31.949,39.865,32.276,39.772,32.6,39.673z M10.676,37.772c1.289-2.979,2.655-5.929,4.087-8.856	c-0.449,0.159-0.899,0.321-1.351,0.488c-1.244,2.573-2.437,5.167-3.572,7.78c0.036,0.207,0.075,0.416,0.117,0.625	C10.197,37.797,10.437,37.785,10.676,37.772z M20.301,36.948c-2.444-0.637-4.835-1.383-7.168-2.247	c-0.139,0.305-0.276,0.609-0.413,0.915c1.611,0.599,3.248,1.141,4.911,1.629C18.54,37.155,19.429,37.056,20.301,36.948z M23.128,36.564c0.911-3.609,1.928-7.179,3.032-10.713c-0.369,0.065-0.74,0.135-1.111,0.208c-1.089,3.516-2.092,7.067-2.991,10.66	C22.419,36.669,22.775,36.617,23.128,36.564z M32.107,34.692c-0.383-3.392-0.835-6.544-1.352-9.471	c-0.332,0.031-0.664,0.065-0.997,0.103c0.527,2.968,0.987,6.173,1.373,9.633C31.46,34.871,31.787,34.781,32.107,34.692z M10.34,33.597c-0.239-0.101-0.477-0.203-0.713-0.307c-0.021,0.356-0.031,0.715-0.029,1.077c0.109,0.048,0.22,0.095,0.331,0.141	C10.064,34.205,10.201,33.901,10.34,33.597z M6.625,33.209c0.02-0.341,0.048-0.679,0.084-1.015	c-0.023,0.003-0.045,0.005-0.068,0.007c-0.523,0.237-1.045,0.479-1.571,0.725c-0.024,0.149-0.048,0.297-0.068,0.445	C5.544,33.317,6.085,33.264,6.625,33.209z M10.7,32.808c0.161-0.351,0.324-0.701,0.487-1.051c-0.472,0.045-0.944,0.091-1.416,0.136	c-0.049,0.335-0.088,0.675-0.117,1.016C10.003,32.876,10.352,32.843,10.7,32.808z M1.987,26.001c0-0.115,0-0.229,0.003-0.345	C5.723,12.409,24.268,0.713,37.364,8.535c1.361,1.043,2.604,2.249,3.693,3.588c-2.996-2.041-6.945-3.121-10.593-3.121	c-12.004,0-25.559,11.996-27.4,23.82C2.364,30.673,1.987,28.381,1.987,26.001z M38.476,32.381l-3.377-7.385	c-0.363,0.003-0.725,0.009-1.089,0.02l3.553,7.775C37.873,32.656,38.177,32.52,38.476,32.381z M22.325,31.784	c0.095-0.341,0.189-0.683,0.287-1.024c-2.608,0.197-5.265,0.425-7.955,0.672c-0.167,0.349-0.332,0.699-0.497,1.049	C16.925,32.225,19.652,31.989,22.325,31.784z M6.875,31.001c0.069-0.404,0.149-0.804,0.243-1.2	c-0.481,0.211-0.961,0.425-1.443,0.644c-0.133,0.42-0.251,0.84-0.352,1.261C5.84,31.467,6.359,31.232,6.875,31.001z M29.716,31.296	c-0.045-0.333-0.091-0.664-0.137-0.992c-1.245,0.068-2.507,0.144-3.783,0.229c-0.099,0.34-0.196,0.68-0.292,1.02	C26.928,31.457,28.332,31.371,29.716,31.296z M35.669,31.057l-0.451-0.987c-0.896,0.024-1.803,0.056-2.72,0.093	c0.045,0.329,0.091,0.66,0.136,0.995C33.66,31.117,34.672,31.083,35.669,31.057z M41.065,31.011	c0.879-0.471,1.671-0.996,2.323-1.601c-0.393-1.348-0.847-2.663-1.364-3.941c-0.38-0.056-0.763-0.107-1.144-0.153	c0.312,0.741,0.603,1.496,1.36,3.817c0.021,0.068-0.009,0.14-0.048,0.108c-1.868-1.609-3.523-2.963-5.147-4.219	c-0.283-0.009-0.564-0.016-0.847-0.021l0.448,0.979c0.804,0.625,1.616,1.275,4.184,3.432c0.228,0.192,0.653,0.612,0.616,0.612	c-1.607-0.017-2.277-0.017-2.956-0.012l0.456,0.996C39.663,31.003,40.368,31.004,41.065,31.011z M13.241,23.564	c10.271-5.769,20.217-8.131,29.736-5.475c-0.461-0.501-0.999-0.977-1.595-1.421c-8.62-1.831-17.507,0.207-26.555,4.903	c-0.131,0.149-0.261,0.3-0.389,0.452C14.019,22.521,13.619,23.035,13.241,23.564z M27.188,22.639	c0.103-0.313,0.207-0.627,0.311-0.941c-0.375,0.069-0.749,0.143-1.125,0.22c-0.099,0.3-0.197,0.601-0.295,0.901	C26.449,22.755,26.819,22.696,27.188,22.639z M33.013,22.052c-0.448-0.312-0.893-0.617-1.336-0.916	c-0.521,0.044-1.043,0.099-1.565,0.161c0.427,0.279,0.855,0.564,1.287,0.856C31.936,22.112,32.476,22.077,33.013,22.052z M12.557,7.203c0.701,0.145,1.392,0.327,2.073,0.544c0.396-0.223,0.797-0.437,1.2-0.643c-0.653-0.241-1.316-0.451-1.988-0.627	C16.879,4.895,20.331,4,23.989,4c2.573,0,5.045,0.444,7.341,1.257C19.939,3.339,7.248,11.696,2.383,21.823	C3.575,15.637,7.357,10.372,12.557,7.203z M24.209,16.641c-0.663-0.351-1.319-0.685-1.971-1.007	c-0.345,0.192-0.692,0.396-1.037,0.608c0.547,0.264,1.099,0.537,1.653,0.821C23.307,16.916,23.757,16.775,24.209,16.641z M29.683,15.409c0.289-0.804,0.584-1.605,0.881-2.407c-0.033,0-0.067-0.001-0.1-0.001c-0.312,0-0.643,0.02-0.988,0.059	c-0.312,0.845-0.62,1.691-0.924,2.539C28.928,15.529,29.305,15.467,29.683,15.409z M27.609,15.261	c0.167-0.465,0.335-0.931,0.504-1.395c-0.053-0.18-0.108-0.36-0.161-0.539c-0.315,0.073-0.637,0.16-0.967,0.257	c0.193,0.631,0.383,1.276,0.567,1.936C27.56,15.436,27.577,15.349,27.609,15.261z M21.257,10.024	c-0.621-0.448-1.253-0.86-1.895-1.239c-0.385,0.157-0.768,0.323-1.149,0.499c0.672,0.365,1.333,0.771,1.984,1.216	C20.548,10.333,20.903,10.175,21.257,10.024z M26.249,8.445c-0.176-0.448-0.356-0.887-0.537-1.317	c-0.343,0.039-0.684,0.085-1.027,0.141c0.195,0.456,0.388,0.923,0.577,1.4C25.592,8.588,25.921,8.512,26.249,8.445z" clip-rule="evenodd"/><path fill-rule="evenodd" d="M23.988,47.001	c10.488,0,19,0.225,19,0.501s-8.512,0.501-19,0.501c-10.488,0-19-0.225-19-0.501S13.5,47.001,23.988,47.001z" clip-rule="evenodd"/></svg>