<svg xmlns="http://www.w3.org/2000/svg" baseProfile="basic" viewBox="0 0 48 48"><path fill-rule="evenodd" d="M20.701,47.761	c0.231-1.28,0.476-2.533,0.737-3.8c-0.337-0.013-0.672-0.027-1.008-0.053c-0.252,1.213-0.491,2.44-0.715,3.68	c-5.624-1.12-10.479-4.373-13.677-8.88c10.864,6.133,28.209,6.293,37.872-3.333c-2.227,4.72-6.081,8.52-10.836,10.68	c-0.067-1.133-0.14-2.24-0.217-3.32c-0.325,0.093-0.655,0.187-0.983,0.267c0.08,1.133,0.155,2.28,0.223,3.467	c-2.505,0.987-5.237,1.533-8.095,1.533C22.88,48.001,21.777,47.921,20.701,47.761z M4.823,36.787c-0.344-0.613-0.66-1.24-0.947-1.88	c0.449-11.88,14.405-24.907,26.601-24.907c1.591,0,3.219,0.213,4.78,0.613l-0.841,0.853c-1.384-0.307-2.729-0.467-3.939-0.467	c-8.223,0-25.189,10.92-22.623,26.413c0.295,0.16,0.593,0.307,0.896,0.453c0.073-0.013,0.147-0.013,0.22-0.013	c-2.908-15.04,13.579-25.853,21.507-25.853c0.968,0,2.016,0.107,3.093,0.307l-1.133,1.133c-0.585,0.587-0.585,1.533,0,2.12	c0.585,0.587,1.536,0.587,2.121,0l2.351-2.347c3.321,1.173,6.439,3.16,7.913,5.653c0.241,0.707,0.448,1.427,0.617,2.16	c-0.211-0.493-0.633-0.72-1.085-0.853c-10.217-2.653-20.847-0.667-31.709,4.28c-0.317,0.493-0.616,1-0.892,1.52	c11.713-5.587,23.035-7.707,33.799-4.427c0.177,0.853,0.304,1.733,0.377,2.627c-11.296-2.64-23.116-0.667-35.225,4.133	c-0.151,0.413-0.288,0.813-0.411,1.24c12.371-5.027,24.337-7.08,35.697-4.333c0.009,0.267,0.015,0.52,0.015,0.787	c0,0.853-0.049,1.693-0.144,2.52c-6.103,6.373-18.571,9.347-35.001,10.24c0.82,0.32,1.665,0.6,2.528,0.853	c14.277-0.987,25.616-3.693,31.981-9.24c0.011-0.027,0.177-0.253,0.267-0.347c-0.168,0.907-0.389,1.787-0.661,2.64	C35.719,44.507,15.769,44.174,4.823,36.787z M30.589,39.001c-0.711-0.107-1.417-0.213-2.12-0.333	c-0.897,0.187-1.815,0.36-2.752,0.52c1.635,0.32,3.291,0.587,4.961,0.827C30.649,39.667,30.62,39.334,30.589,39.001z M32.613,39.667	c-0.057-0.653-0.116-1.307-0.177-1.947c-0.324,0.08-0.651,0.173-0.98,0.253c0.061,0.653,0.121,1.307,0.179,1.973	C31.963,39.867,32.289,39.774,32.613,39.667z M10.689,37.774c1.289-2.987,2.655-5.933,4.087-8.867	c-0.449,0.16-0.899,0.333-1.351,0.493c-1.244,2.573-2.437,5.173-3.572,7.787c0.036,0.2,0.075,0.413,0.117,0.613	C10.211,37.801,10.451,37.787,10.689,37.774z M20.315,36.947c-2.444-0.64-4.835-1.387-7.168-2.253	c-0.139,0.307-0.276,0.613-0.413,0.92c1.611,0.6,3.248,1.147,4.911,1.627C18.553,37.147,19.443,37.054,20.315,36.947z M23.141,36.561c0.911-3.613,1.928-7.173,3.032-10.707c-0.369,0.053-0.74,0.133-1.111,0.2c-1.089,3.52-2.092,7.067-2.991,10.667	C22.432,36.667,22.788,36.614,23.141,36.561z M32.12,34.694c-0.383-3.4-0.835-6.547-1.352-9.48c-0.332,0.04-0.664,0.067-0.997,0.107	c0.527,2.973,0.987,6.173,1.373,9.64C31.473,34.867,31.8,34.774,32.12,34.694z M6.639,33.201c0.02-0.333,0.048-0.667,0.084-1.013	c-0.023,0.013-0.045,0.013-0.068,0.013c-0.523,0.24-1.045,0.48-1.571,0.72c-0.024,0.16-0.048,0.307-0.068,0.453	C5.557,33.321,6.099,33.267,6.639,33.201z M10.713,32.801c0.161-0.347,0.324-0.693,0.487-1.04c-0.472,0.04-0.944,0.08-1.416,0.133	c-0.049,0.333-0.088,0.667-0.117,1.013C10.016,32.867,10.365,32.841,10.713,32.801z M2,26.001c0-0.12,0-0.227,0.003-0.347	c1.333-4.733,4.556-9.267,8.747-12.787l2.691,2.693c0.096,0.093,0.203,0.187,0.316,0.24c-5.511,4.547-9.712,10.8-10.679,17.013	C2.377,30.667,2,28.374,2,26.001z M38.489,32.374l-3.377-7.387c-0.363,0.013-0.725,0.013-1.089,0.027l3.553,7.773	C37.887,32.654,38.191,32.521,38.489,32.374z M22.339,31.787c0.095-0.347,0.189-0.693,0.287-1.027	c-2.608,0.2-5.265,0.427-7.955,0.667c-0.167,0.347-0.332,0.707-0.497,1.053C16.939,32.227,19.665,31.987,22.339,31.787z M6.888,31.001c0.069-0.4,0.149-0.8,0.243-1.2c-0.481,0.213-0.961,0.427-1.443,0.64c-0.133,0.427-0.251,0.84-0.352,1.267	C5.853,31.467,6.372,31.227,6.888,31.001z M29.729,31.294c-0.045-0.333-0.091-0.667-0.137-0.987	c-1.245,0.067-2.507,0.133-3.783,0.227c-0.099,0.333-0.196,0.68-0.292,1.013C26.941,31.454,28.345,31.374,29.729,31.294z M35.683,31.054l-0.451-0.987c-0.896,0.027-1.803,0.053-2.72,0.093c0.045,0.333,0.091,0.667,0.136,1	C33.673,31.121,34.685,31.081,35.683,31.054z M41.079,31.014l2.323-1.6c-0.393-1.36-0.847-2.667-1.364-3.947	c-0.38-0.053-0.763-0.107-1.144-0.16c0.321,0.773,0.62,1.547,1.427,4.027c-1.915-1.653-3.604-3.04-5.261-4.32	c-0.283,0-0.564-0.013-0.847-0.013l0.448,0.973c0.863,0.667,4.867,4.013,4.913,4.053c-0.048,0-2.395-0.027-3.069-0.013l0.456,0.987	C39.676,31.001,40.381,31.001,41.079,31.014z M13.255,23.561c10.271-5.773,20.217-8.133,29.736-5.467	c-0.461-0.507-0.999-0.987-1.595-1.427c-8.62-1.827-17.507,0.2-26.555,4.907c-0.131,0.147-0.261,0.293-0.389,0.44	C14.032,22.521,13.632,23.027,13.255,23.561z M27.201,22.641c0.103-0.32,0.207-0.627,0.311-0.947	c-0.375,0.067-0.749,0.147-1.125,0.227c-0.099,0.293-0.197,0.6-0.295,0.893C26.463,22.747,26.832,22.694,27.201,22.641z M33.027,22.054c-0.448-0.32-0.893-0.627-1.336-0.92c-0.521,0.04-1.043,0.093-1.565,0.16c0.427,0.28,0.855,0.56,1.287,0.853	C31.949,22.107,32.489,22.081,33.027,22.054z M8.384,10.507l1.655,1.653c-3.252,2.76-5.932,6.093-7.643,9.653	C3.237,17.454,5.371,13.547,8.384,10.507z M24.223,16.641c-0.663-0.347-1.319-0.693-1.971-1.013c-0.345,0.2-0.692,0.4-1.037,0.613	c0.547,0.267,1.099,0.533,1.653,0.827C23.32,16.907,23.771,16.774,24.223,16.641z M37.688,12.427l0.691-0.68	c2.035,0.947,3.791,2.267,4.973,3.907C41.767,14.307,39.769,13.214,37.688,12.427z M29.696,15.414	c0.289-0.813,0.584-1.613,0.881-2.413c-0.033,0-0.067,0-0.1,0c-0.312,0-0.643,0.013-0.988,0.053	c-0.312,0.853-0.62,1.693-0.924,2.547C28.941,15.521,29.319,15.467,29.696,15.414z M27.623,15.254	c0.167-0.467,0.335-0.92,0.504-1.387c-0.053-0.187-0.108-0.36-0.161-0.547c-0.315,0.08-0.637,0.16-0.967,0.267	c0.193,0.627,0.383,1.267,0.567,1.933C27.573,15.427,27.591,15.347,27.623,15.254z M15.561,13.441l-2.405-2.4	c7.287-5.027,16.647-7.013,24.2-2.52l-1.288,1.293c-1.833-0.533-3.751-0.813-5.591-0.813c-4.883,0-10.02,1.987-14.523,5.133	C15.891,13.881,15.759,13.641,15.561,13.441z M39.128,10.987l0.488-0.48c0.511,0.507,0.996,1.053,1.455,1.613	C40.459,11.707,39.808,11.334,39.128,10.987z M21.271,10.027c-0.621-0.453-1.253-0.867-1.895-1.24	c-0.385,0.147-0.768,0.32-1.149,0.493c0.672,0.36,1.333,0.773,1.984,1.213C20.561,10.334,20.916,10.174,21.271,10.027z M12.432,10.307l-1.791-1.787c0.619-0.467,1.261-0.92,1.929-1.32c0.701,0.147,1.392,0.32,2.073,0.547	c0.396-0.227,0.797-0.44,1.2-0.64c-0.653-0.253-1.316-0.453-1.988-0.627c3.036-1.587,6.488-2.48,10.147-2.48	c2.573,0,5.045,0.44,7.341,1.253C24.905,4.174,18.053,6.374,12.432,10.307z M26.263,8.441c-0.176-0.44-0.356-0.88-0.537-1.32	c-0.343,0.04-0.684,0.093-1.027,0.147c0.195,0.453,0.388,0.92,0.577,1.4C25.605,8.587,25.935,8.507,26.263,8.441z" clip-rule="evenodd"/><path fill-rule="evenodd" d="M24.001,47.001	c10.488,0,19,0.227,19,0.493c0,0.28-8.512,0.507-19,0.507c-10.488,0-19-0.227-19-0.507C5.001,47.227,13.513,47.001,24.001,47.001z" clip-rule="evenodd"/><path fill-rule="evenodd" d="M33.144,14.854	c-0.195-0.2-0.195-0.507,0-0.707l7.411-7.413c-0.349-0.493-0.553-1.093-0.553-1.733c0-1.653,1.344-3,3-3c1.656,0,3,1.347,3,3	s-1.344,3-3,3c-0.648,0-1.248-0.213-1.737-0.56l-7.412,7.413C33.656,15.054,33.34,15.054,33.144,14.854z M42.556,4.547	c0.46-0.453,0.584-1.08,0.277-1.387c-0.307-0.307-0.928-0.173-1.387,0.28c-0.46,0.467-0.584,1.08-0.277,1.387	S42.097,5.014,42.556,4.547z" clip-rule="evenodd"/><path fill-rule="evenodd" d="M2.075,45.921	c-0.097-0.093-0.097-0.253,0-0.36c1.573-1.893,3.303-3.653,5.045-5.387c0.195-0.2,0.512-0.2,0.707,0	c0.195,0.187,0.195,0.507,0,0.707c-1.74,1.747-3.497,3.467-5.395,5.04C2.335,46.027,2.172,46.027,2.075,45.921z" clip-rule="evenodd"/><path fill-rule="evenodd" d="M14.147,14.854L6.735,7.441	c-0.491,0.347-1.089,0.56-1.736,0.56c-1.656,0-3-1.347-3-3s1.344-3,3-3s3,1.347,3,3c0,0.64-0.207,1.24-0.556,1.733l7.412,7.413	c0.195,0.2,0.195,0.507,0,0.707C14.659,15.054,14.343,15.054,14.147,14.854z M4.553,4.547c0.46-0.453,0.584-1.08,0.277-1.387	c-0.307-0.307-0.928-0.173-1.387,0.28c-0.46,0.467-0.584,1.08-0.277,1.387C3.473,5.134,4.095,5.014,4.553,4.547z" clip-rule="evenodd"/><path fill-rule="evenodd" d="M45.925,45.921	c0.097-0.093,0.097-0.253,0-0.36c-1.573-1.893-4.303-4.653-6.045-6.387c-0.195-0.2-0.512-0.2-0.707,0	c-0.195,0.187-0.195,0.507,0,0.707c1.74,1.747,4.497,4.467,6.395,6.04C45.665,46.027,45.828,46.027,45.925,45.921z" clip-rule="evenodd"/></svg>