<svg xmlns="http://www.w3.org/2000/svg" baseProfile="basic" viewBox="0 0 48 48"><path fill-rule="evenodd" d="M4.232,41.391l23.344-25.281	c2.808-3.041,4.764-6.823,7.551-9.875c-0.844-0.473-1.737-0.873-2.637-1.22C30.541,4.268,28.48,3.6,26.397,3.348	c-1.141-0.139-2.245-0.299-3.399-0.347c0.864-0.005,1.731-0.081,2.595-0.033c0.996,0.056,1.977,0.071,2.969,0.209	c1.395,0.195,2.624,0.441,3.983,0.803c0.397,0.105,0.775,0.299,1.159,0.441c0.692,0.259,1.473,0.645,2.168,1.059l0.164-0.185	c0.199-0.221,0.403-0.436,0.611-0.645c3.392-3.391,6.647-3.643,8.496-1.792c1.851,1.849,1.599,5.104-1.792,8.496	c-0.209,0.208-0.424,0.412-0.645,0.611L42.471,12.2c-0.348,0.348-0.708,0.683-1.077,1.007c0.132,1.185,0.115,2.057-0.08,3.283	c-0.585,3.677-3.631,6.752-6.303,9.117c-0.813,0.72-1.619,1.447-2.408,2.192c-1.351,1.275-2.68,2.743-3.023,4.555l-0.081,0.785	l0.06,0.813c0.299,1.857,1.643,3.148,3.289,4.113c0.392,0.229,0.801,0.411,1.193,0.628c0.907,0.504,2.123,1.073,3.107,1.4	c0.845,0.281,1.723,0.597,2.564,0.899c1.036,0.371,2.223,0.735,3.287,1.009c-1.212-0.253-2.444-0.445-3.649-0.727	c-0.944-0.22-1.865-0.441-2.801-0.692c-0.673-0.18-1.533-0.419-2.169-0.692c-0.293-0.125-0.611-0.245-0.909-0.364	c-0.451-0.18-1.036-0.539-1.453-0.799c-1.816-1.131-2.913-2.379-3.416-4.477c-0.087-0.36-0.148-1.187-0.081-1.568	c0.087-0.493,0.124-0.849,0.283-1.341c0.808-2.513,3.811-4.909,5.721-6.637c2.885-2.609,5.185-4.956,5.813-8.563	c0.104-0.539,0.16-1.077,0.163-1.616l-0.037-0.539c-2.779,2.231-5.949,4.017-8.571,6.437L6.609,43.768	c-1.921,1.775-4.337,3.175-6.611,4.233C1.057,45.728,2.457,43.312,4.232,41.391z M2.448,45.552l0.457-0.245	c0.377-0.235,0.749-0.481,1.112-0.736l25.028-27.104c3.171-3.436,4.8-6.985,7.775-10.117c-0.265-0.205-0.54-0.4-0.823-0.585	c-2.865,3.067-4.461,6.529-7.687,10.024L4.965,42.069c-0.839,0.909-1.596,1.941-2.272,3.025L2.448,45.552z M40.435,10.437	c1.453-1.453,1.991-3.276,1.197-4.069c-0.703-0.701-2.211-0.361-3.556,0.733c0.749,0.676,1.436,1.457,1.96,2.296	c-0.096,0.112-0.2,0.224-0.309,0.333C39.585,9.872,39.444,10,39.3,10.117c-0.524-0.895-1.189-1.664-1.949-2.331	c-1.292,1.413-1.74,3.095-0.985,3.848C37.159,12.428,38.981,11.891,40.435,10.437z M38.063,6.063	c3.105-3.105,5.561-3.004,6.212-2.353c0.343,0.367,0.412,0.149,0.117-0.185c-1.265-1.213-3.827-1.379-7.037,1.832	c-0.245,0.224-0.459,0.451-0.628,0.675c0.265,0.183,0.537,0.391,0.797,0.6C37.697,6.437,37.877,6.248,38.063,6.063z" clip-rule="evenodd"/><path fill-rule="evenodd" d="M-0.001,48.001	c9.367,0,34-0.221,34-0.499c0-0.279-23.633-0.501-33-0.501L-0.001,48.001z" clip-rule="evenodd"/></svg>