<svg xmlns="http://www.w3.org/2000/svg" baseProfile="basic" viewBox="0 0 48 48"><path fill-rule="evenodd" d="M7.995,48.003v-3h1.5	c0.275,0,0.5-0.224,0.5-0.5c0-0.275-0.225-0.5-0.5-0.5h-6.5l-0.001-5.007c0.003-1.1,0.899-1.993,2.001-1.993h12v6.5	c0,0.276,0.224,0.5,0.5,0.5c0.275,0,0.5-0.224,0.5-0.5v-1.5h4v-8h-5v-4h5v-1h16v19H7.995z M38.995,39.003v-6.999h2v6.999H38.995z M12.995,36.003v-0.999h1V22.487c0-0.275-0.225-0.5-0.5-0.5c-0.276,0-0.5,0.225-0.5,0.5v4.516h-4c-1.103,0-1.999-0.892-2.001-1.992	v-9.015c0.003-1.1,0.899-1.993,2.001-1.993h27c1.101,0,1.997,0.893,2,1.993v8.008h1.999v-1.001h-0.999l1-13h0.999v-1h2.001v1h1l1,13	h-1v1.001h1v1.999h-7v2h-16v-1h-6.001v8.001h1v0.999H12.995z M38.995,30.004v-3.001h2.001v3.001H38.995z M41.995,21.003v-10h-1.075	l-0.771,10H41.995z M19.995,20.003v-2.999h-2.001v2.999H19.995z M25.995,20.003v-2.999h-2.001v2.999H25.995z M22.995,20.001v-2.999	h-2.001v2.999H22.995z M28.995,20.001v-2.999h-2.001v2.999H28.995z M35.995,13.003h-2v-2h-1.075l-0.155,2h-1.003l0.232-3h0.999v-1	h2.001v1h1l0.232,3.009C36.15,13.007,36.073,13.003,35.995,13.003z M15.763,13.003l0.232-3h0.999v-1h2.001v1h1l0.231,3h-2.231v-2	h-1.075l-0.155,2H15.763z M23.763,13.003l0.232-3h0.999v-1h2.001v1h1l0.231,3h-2.231v-2h-1.075l-0.155,2H23.763z M28.995,13.003v-9	h-13.5c-0.276,0-0.5-0.224-0.5-0.5c0-0.275,0.224-0.5,0.5-0.5h13.996l0.004-0.001l0.003,0.001h13.996c0.275,0,0.5,0.225,0.5,0.5	c0,0.276-0.225,0.5-0.5,0.5H29.995v9H28.995z" clip-rule="evenodd"/><path fill-rule="evenodd" d="M7.995,48c-2.203,0-8-0.221-8-0.499	c0-0.279,5.797-0.499,8-0.499l0.605,0.475L7.995,48z" clip-rule="evenodd"/><path fill-rule="evenodd" d="M37.995,48.003	c1.376,0,5-0.221,5-0.499c0-0.279-3.624-0.499-5-0.499l-0.727,0.457L37.995,48.003z" clip-rule="evenodd"/></svg>