<svg xmlns="http://www.w3.org/2000/svg" baseProfile="basic" viewBox="0 0 48 48"><path fill-rule="evenodd" d="M4.997,47.999	c-1.375,0-5-0.221-5-0.499c0-0.279,3.625-0.499,5-0.499V47.999z" clip-rule="evenodd"/><path fill-rule="evenodd" d="M42.983,47.999	c1.375,0,5-0.221,5-0.499c0-0.279-3.625-0.499-5-0.499V47.999z" clip-rule="evenodd"/><path fill-rule="evenodd" d="M3.997,44.502c0-1.927,0.54-3.5,1-3.5	h4.5c0.275,0,0.5-0.224,0.5-0.5c0-0.275-0.225-0.5-0.5-0.5h-2l1.5-1h30l1.5,1h-1.999c-0.276,0-0.5,0.225-0.5,0.5	c0,0.276,0.224,0.5,0.5,0.5h4.499c0.459,0,1,1.573,1,3.5c0,1.932-0.541,3.5-1,3.5h-38C4.537,48.002,3.997,46.434,3.997,44.502z M14.997,47.002v-4.999H7.995v4.999H14.997z M14.997,41.002l1-1H10.91c0.056,0.157,0.087,0.325,0.087,0.5	c0,0.176-0.031,0.345-0.087,0.5H14.997z M11.603,31.486l-6.463-6.62c-0.192,0.089-0.405,0.139-0.629,0.139	c-0.828,0-1.501-0.673-1.501-1.501s0.673-1.501,1.501-1.501c0.828,0,1.501,0.673,1.501,1.501c0,0.239-0.056,0.464-0.155,0.664	l6.265,6.416c1.319-2.105,3.184-3.836,5.396-4.993l-5.336-11.213c-0.115-0.115-0.233-0.253-0.356-0.412	c-0.521,0.484-1.121,0.819-1.761,1.091c0.003,0.044,0.005,0.089,0.008,0.135c0.089,1.961,0.265,3.768,1.461,5.405	c0.072,0.085,0.061,0.213-0.024,0.285c-0.085,0.072-0.213,0.061-0.285-0.024c-0.329-0.325-0.593-0.591-0.881-0.957	c-0.943-1.201-1.265-2.931-1.332-4.452c-0.355,0.121-0.713,0.237-1.069,0.36c-0.52,0.18-1.6,0.533-1.828,1.175L6.077,17.25	l0.059,0.592c0.243,1.441,1.147,2.721,1.863,3.965c0.363,0.632,0.62,1.245,0.948,1.872c0.052,0.099,0.013,0.223-0.085,0.275	c-0.099,0.052-0.223,0.013-0.275-0.085c-0.284-0.457-0.591-0.851-0.9-1.289c-0.276-0.391-0.587-0.76-0.867-1.149	c-0.857-1.193-2.373-3.445-1.64-4.992c0.404-0.852,1.456-1.272,2.309-1.508c0.493-0.136,1-0.245,1.501-0.367	c-0.02-1.309,0.057-2.736,1.437-3.187c-0.459-1.208-0.575-2.189-0.236-2.351c0.415-0.199,1.364,0.92,2.113,2.496	c0.447,0.939,0.723,1.828,0.787,2.436l5.329,11.2c1.419-0.616,2.959-1.005,4.575-1.12c0,1.831,0.031,3.688,0.503,5.469	c0.467-1.808,0.493-3.683,0.497-5.504V12.918c-0.583-0.207-1-0.763-1-1.416c0-0.828,0.673-1.501,1.501-1.501	s1.501,0.673,1.501,1.501c0,0.653-0.419,1.209-1.001,1.416v11.12c1.112,0.08,2.188,0.288,3.295,0.641	c-0.753,2.279-1.741,5.417-2.285,8.648c1.432-2.92,2.464-6.007,3.181-8.263l2.396-7.371c-0.359-0.275-0.589-0.707-0.589-1.193	c0-0.828,0.673-1.501,1.501-1.501c0.828,0,1.501,0.673,1.501,1.501c0,0.816-0.652,1.48-1.463,1.501l-2.397,7.417	c1.119,0.548,2.155,1.243,3.252,2.219c-1.343,1.368-2.735,2.839-3.764,4.567c1.689-1.065,3.112-2.477,4.448-3.845l5.075-5.192	c-0.099-0.2-0.153-0.425-0.153-0.664c0-0.828,0.673-1.501,1.501-1.501s1.501,0.673,1.501,1.501s-0.673,1.501-1.501,1.501	c-0.227,0-0.44-0.049-0.633-0.139l-5.085,5.209c2.009,2.424,3.22,5.536,3.22,8.927h-28C9.997,35.65,10.577,33.433,11.603,31.486z M17.145,35.09l0.005-0.072c0.327-2.563,1.075-4.887,2.112-6.633l0.213-0.332c0.575-0.893-0.484-1.947-1.373-1.367l-0.711,0.464	c-2.473,1.764-4.299,4.459-5.048,7.624c-0.148,0.621,0.324,1.219,0.964,1.219h2.851C16.67,35.993,17.099,35.601,17.145,35.09z M11.554,13.583c-0.257-0.381-0.517-0.839-0.756-1.344c-0.04-0.08-0.077-0.161-0.113-0.241c-0.685,0.393-0.704,1.031-0.672,1.809	c0.005,0.157,0.012,0.315,0.019,0.472C10.566,14.109,11.082,13.893,11.554,13.583z M12.215,13.275	c0.204-0.096,0.073-0.813-0.287-1.657c-0.029,0.019-0.063,0.029-0.097,0.029c-0.267,0.044-0.487,0.088-0.743,0.173	c-0.023,0.008-0.044,0.016-0.065,0.023C11.47,12.746,11.995,13.381,12.215,13.275z M10.811,11.282	c0.364-0.061,0.603-0.039,0.948-0.032c-0.451-0.921-0.985-1.573-1.208-1.468c-0.193,0.092-0.089,0.731,0.223,1.507	C10.786,11.287,10.798,11.285,10.811,11.282z" clip-rule="evenodd"/></svg>