<svg xmlns="http://www.w3.org/2000/svg" baseProfile="basic" viewBox="0 0 48 48"><path fill-rule="evenodd" d="M3.999,47.998	c-1.108,0-4-0.227-4-0.493c0-0.28,2.892-0.507,4-0.507l0.996,0.533l0.004,0.467H3.999z" clip-rule="evenodd"/><path fill-rule="evenodd" d="M43.999,47.998	c1.108,0,4-0.227,4-0.493c0-0.28-2.892-0.507-4-0.507l-0.996,0.533l-0.004,0.467H43.999z" clip-rule="evenodd"/><path fill-rule="evenodd" d="M2.997,45.998l0.001-6h1.504	c0.275,0,0.5-0.227,0.5-0.507c0-0.267-0.225-0.493-0.5-0.493H2.998l0.001-1h41.997v1h-1.497c-0.276,0-0.5,0.227-0.5,0.493	c0,0.28,0.224,0.507,0.5,0.507h1.497l0.001,6c0,1.107-0.897,2-2.001,2H4.998C3.894,47.998,2.997,47.105,2.997,45.998z M24.999,27.998c0-3.16-3.755-6-7-6c-3.049,0-7.907,0.467-9.017,3.36c0.015-0.107,0.023-0.24,0.023-0.36	c0-0.32-0.052-0.613-0.135-0.88l-0.015-0.04l-2.856-8.027v2.973l1.915,5.387c0.057,0.187,0.091,0.373,0.091,0.587	c0,1.107-0.899,2-2.005,2c-0.855,0-1.581-0.533-1.872-1.28l-1.84-4.773l0.671,8.053h1.041v-1.8l0.279,0.267	c0.437,0.307,0.96,0.493,1.529,0.533h0.38c1.096-0.067,2.035-0.72,2.501-1.653l-0.477,1.653c-0.216,0.76-1.049,1.333-1.817,1.493	l-0.395,0.093v2.413h0.508c0.275,0,0.5,0.227,0.5,0.493c0,0.28-0.225,0.507-0.5,0.507H5.999v3.493c0,0.28-0.225,0.507-0.5,0.507	c-0.276,0-0.5-0.227-0.5-0.507l-0.001-0.973c-0.001,0.267-0.225,0.493-0.499,0.493c-0.276,0-0.5-0.227-0.5-0.507v-1.013	c0-0.28,0.224-0.507,0.5-0.507c0.272,0,0.496,0.227,0.499,0.493v-1.773l-2.853-2.853c-0.083-0.08-0.135-0.2-0.144-0.307l-1-12	c-0.028-0.333,0.225-0.533,0.484-0.547l0,0h1.513v1H2.225l1.775,4.613v-6.213l-0.972-2.733c-0.104-0.293,0.08-0.6,0.385-0.653	l0.587-0.107v-0.907h0.999l0.001-3.493c0-0.28,0.224-0.507,0.5-0.507c0.275,0,0.5,0.227,0.5,0.507v3.493	c0.424,0,0.84,0.12,1.265,0.333l18.732-3.253V8.825c0-0.453,0.369-0.827,0.823-0.827h0.179v-1h2.001v1h0.181	c0.453,0,0.823,0.373,0.823,0.827v5.347c0,0.453-0.369,0.827-0.823,0.827h-0.181v1c1.047,0,2.041,0.347,2.863,1h4.137	c0.008-0.547,0.452-0.987,1-0.987c0.551,0,1,0.44,1,1v-4.013c0-0.56,0.448-1,1-1c0.551,0,1,0.44,1,1v14h1c0.156,0.413,0.529,1,1,1	c1.056,0,1.947-1,3-1c1.168,0,3,0.333,3,1v1c0,0.653-1.832,1-3,1c-1.053,0-1.944-1-3-1c-0.471,0-0.844,0.587-1,1h-1.921	c-0.027,0-0.053,0-0.079,0c-0.552,0-1-0.44-1-1v-4.013c0,0.547-0.449,1-1,1c-0.545,0-0.988-0.44-1-0.987h-2v12h-11	C24.159,34.145,24.999,31.118,24.999,27.998z M31.001,30.491c0-1.373-0.897-2.493-2.001-2.493c-1.104,0-2.001,1.12-2.001,2.493	c0,1.387,0.897,2.507,2.001,2.507C30.103,32.998,31.001,31.878,31.001,30.491z M4.998,31.291v-1.507l-0.999,0.213l0,0H3.705	L4.998,31.291z M7.005,24.998l-0.045-0.293l-0.597-1.667c-0.117-0.027-0.24-0.04-0.363-0.04l-0.48,0.067l-0.076,0.013	c-0.095,0.027-0.213,0.067-0.349,0.133c-0.251,0.12-0.476,0.307-0.656,0.533l0.621,1.613c0.147,0.373,0.513,0.64,0.94,0.64	C6.553,25.998,7.005,25.558,7.005,24.998z M35.999,20.998c0-1.653-1.344-3-2.999-3c-1.655,0-2.999,1.347-2.999,3	c0,1.653,1.344,3,2.999,3C34.655,23.998,35.999,22.651,35.999,20.998z M32.002,20.998c0-0.547,0.448-1,0.999-1s0.999,0.453,0.999,1	s-0.448,1-0.999,1S32.002,21.545,32.002,20.998z M26.997,16.078l0.001-1.08h-0.179c-0.453,0-0.823-0.373-0.823-0.827v-4.08	l-19.997,3.48v1.013l3.623-0.627c1.88,1.4,4.351,3.04,8.377,3.04C21.141,16.998,23.894,16.318,26.997,16.078z M4.998,16.225v-2.48	l-0.829,0.147L4.998,16.225z" clip-rule="evenodd"/></svg>