<svg xmlns="http://www.w3.org/2000/svg" baseProfile="basic" viewBox="0 0 48 48"><path fill-rule="evenodd" d="M12.003,43.001v-3c0-0.64,0.363-1,1-1	c1.897,0,7-2.947,7-10v-5c5.628-8.173,12.669-15.373,22-21c-3.532,6.147-8.087,11.64-13,17c-1.199,1.307-1.58,3.307-2.813,4.613	l-3.187,3.387c-1.364,1.453-0.761,3.307-1.471,5.787c-0.461,1.613-1.529,2.907-1.529,4.213c0,0.747,0.44,1.333,0.999,2	c0.628,0.84,1.001,1.88,1.001,3c0,2.76-2.24,5-5,5C14.241,48.001,12.003,45.761,12.003,43.001z M20.003,43.001c0-1.653-1.345-3-3-3	c-1.656,0-3,1.347-3,3c0,1.653,1.344,3,3,3C18.657,46.001,20.003,44.654,20.003,43.001z M0.735,36.921	c-0.512-0.787-0.748-1.68-0.732-2.56v-3.36c0-0.64,0.363-1,1-1h2.007c1.585-1.04,4.555-2.987,4.979-3.267	c1.801-1.173,4.132-0.893,5.617,0.533l0,0c0.467,0.427,0.693,0.733,1.043,0.733c0.499,0,0.932-1.333,1.899-2.413	c0.632-0.72,1.689-1.187,2.456-1.587v3c-0.611,0-1.089,0.64-1.431,1.147l-3.295,4.88c-0.336,0.533-0.784,0.987-1.335,1.347	c-0.548,0.36-5.396,3.547-5.927,3.893C4.915,39.641,2.099,39.041,0.735,36.921z M5.921,36.587c0.531-0.347,5.376-3.52,5.924-3.88	c1.175-0.773,1.512-2.36,0.745-3.547c-0.765-1.187-2.337-1.52-3.508-0.747c-0.551,0.36-5.395,3.533-5.925,3.88	c-1.173,0.773-1.511,2.36-0.744,3.547C3.177,37.027,4.751,37.361,5.921,36.587z M29.739,20.681c1.892-2.067,3.736-4.147,5.495-6.293	l10.769-6.387c-0.639,2.733-3.829,6.36-5.813,7.707l-12.503,8.573C28.497,22.987,29.061,21.414,29.739,20.681z M25.004,23.001	c0-0.547-0.449-1-1.001-1s-1.001,0.453-1.001,1s0.449,1,1.001,1S25.004,23.547,25.004,23.001z" clip-rule="evenodd"/><path fill-rule="evenodd" d="M17.003,48.001	c-4.131,0-15-0.227-15-0.493c0-0.28,10.869-0.507,15-0.507V48.001z" clip-rule="evenodd"/><path fill-rule="evenodd" d="M17.003,48.001	c6.608,0,24-0.227,24-0.493c0-0.28-17.392-0.507-24-0.507V48.001z" clip-rule="evenodd"/></svg>