<svg xmlns="http://www.w3.org/2000/svg" baseProfile="basic" viewBox="0 0 48 48"><path fill-rule="evenodd" d="M16.015,48.001	c-1.101,0-4-0.227-4-0.507c0-0.267,2.899-0.493,4-0.493h1l1,1H16.015z" clip-rule="evenodd"/><path fill-rule="evenodd" d="M32.004,48.001	c1.101,0,4-0.227,4-0.507c0-0.267-2.899-0.493-4-0.493h-1l-1,1H32.004z" clip-rule="evenodd"/><path fill-rule="evenodd" d="M16.012,47.001v-1	c0-0.547,0.448-1,1-1h3.989c1.104,0,2.003-0.893,2.003-2v-4h2l-0.001,4.093c0.045,1.053,0.925,1.907,2.001,1.907h4.012	c0.552,0,1,0.453,1,1v1c0,0.547-0.448,1-1,1H17.012C16.46,48.001,16.012,47.547,16.012,47.001z M14.004,30.001c0-4.653,4-7.107,4-11	c0-1.053-0.24-2.053-0.6-3.04c0.048,0.04,0.097,0.067,0.147,0.093c0.937,0.573,2.003,0.947,2.832,0.947	c1.937,0,3.287-1.4,3.62-2.547c0.333,1.147,1.683,2.547,3.62,2.547c0.829,0,1.895-0.373,2.832-0.947	c0.048-0.027,0.097-0.053,0.145-0.093c-0.36,0.987-0.599,1.987-0.599,3.04c0,3.893,4,6.347,4,11c0,6.907-0.376,8-6,8h-7.997	C14.38,38.001,14.004,36.907,14.004,30.001z M18.004,28.001c0.315-1.64,1.541-5,0.78-5c-0.603,0-1.708,2.28-2.241,3.587	c-0.312,0.76-0.523,1.587-0.539,2.413c-0.027,1.36-0.016,4,0.724,4C17.409,33.001,17.548,30.374,18.004,28.001z M18.068,15.201	c-0.849-0.52-1.572-1.2-1.897-1.907c-1.164-2.267-2.167-4.187-2.167-6.293c0-1.107,0.299-1.747,1-2l4.429-1.587	c0.903-0.32,1.571-1.16,1.571-2.413c0-0.56,0.284-1,1-1h3.997c0.716,0,1,0.44,1,1c0,1.253,0.668,2.093,1.571,2.413l4.429,1.587	c0.701,0.253,1,0.893,1,2c0,2.107-1.001,4.027-2.167,6.293c-0.325,0.707-1.048,1.387-1.897,1.907c-0.853,0.52-1.737,0.8-2.315,0.8	c-1.759,0-2.807-0.867-3.161-1.693c-0.085-0.2-0.275-0.307-0.461-0.307c-0.187,0-0.372,0.107-0.456,0.307	c-0.355,0.827-1.403,1.693-3.161,1.693C19.805,16.001,18.921,15.721,18.068,15.201z M31.972,9.241	c0.137-0.533-0.179-1.08-0.712-1.227c-0.537-0.147-1.083,0.173-1.221,0.72c-0.509,1.707-0.535,2.147-0.035,2.253	C30.276,11.041,31.403,11.067,31.972,9.241z M17.159,7.454c1.256-0.853,2.015-1.773,1.801-2.227c-0.228-0.48-1.856,0.013-3.415,0.88	l-0.033,0.027c-0.369,0.173-0.597,0.653-0.476,1.12c0.569,1.827,1.487,3.147,2.059,3.013C17.54,10.174,17.503,8.894,17.159,7.454z" clip-rule="evenodd"/></svg>