<svg xmlns="http://www.w3.org/2000/svg" baseProfile="basic" viewBox="0 0 48 48"><path fill-rule="evenodd" d="M18.987,48.002	c-3.3,0-12-0.221-12-0.499c0-0.279,8.7-0.499,12-0.499l0.632,0.489L18.987,48.002z" clip-rule="evenodd"/><path fill-rule="evenodd" d="M18.987,48.002	c6.051,0,22-0.221,22-0.499c0-0.279-15.949-0.499-22-0.499V48.002z" clip-rule="evenodd"/><path fill-rule="evenodd" d="M6.985,44.003l0.001-25.001	c0-8.832,3.136-16,7-16h21c3.864,0,7,7.168,7,16s-3.136,16-7,16l-4,0.001v-2.496c0-0.276-0.224-0.5-0.501-0.5	c-0.276,0-0.5,0.224-0.5,0.501v11.493L6.985,44.003z M27.987,42.003V18.786c0.04-6.776,1.924-12.54,4.557-14.783L14.985,4.002	c-1.192,0-2.452,1.076-3.507,3h2.501c0.275,0,0.5,0.225,0.5,0.5c0,0.276-0.225,0.5-0.5,0.5h-2.996c-0.505,1.129-0.945,2.472-1.283,4	h5.504c0.275,0,0.5,0.225,0.5,0.5c0,0.276-0.225,0.5-0.5,0.5H9.501c-0.225,1.233-0.384,2.572-0.461,4h2.501	c0.275,0,0.5,0.225,0.5,0.5c0,0.276-0.225,0.5-0.5,0.5H8.999c-0.008,0.329-0.012,0.664-0.012,1.001l-0.001,2.999h5.501	c0.275,0,0.5,0.225,0.5,0.5c0,0.276-0.225,0.5-0.5,0.5H8.985v4h2.501c0.275,0,0.5,0.225,0.5,0.5c0,0.276-0.225,0.5-0.5,0.5H8.985v4	h5.501c0.275,0,0.5,0.225,0.5,0.5c0,0.276-0.225,0.5-0.5,0.5H8.985v4h2.501c0.275,0,0.5,0.225,0.5,0.5c0,0.276-0.225,0.5-0.5,0.5	H8.985v4.001H27.987z M36.784,31.811c-0.261,0.123-0.525,0.187-0.793,0.187c-1.304,0-2.539-1.525-3.42-3.668	c-0.805-1.957-1.415-4.655-1.555-8.012c-0.055-1.056-0.031-2.087,0.047-3.095c0.496-5.987,2.461-9.221,3.924-9.221	c0.139,0,0.281,0.029,0.427,0.085c-0.555-0.755-1.073-1.081-1.431-1.081c-0.592,0-1.607,0.883-2.501,3.072	c-0.836,2.048-1.464,5.007-1.492,8.408c-0.003,0.329-0.003,0.423-0.003,0.516c0,8.515,2.876,13.936,5,13.936	C35.549,32.938,36.173,32.55,36.784,31.811z M38.491,27.927c0.835-2.047,1.464-5.005,1.492-8.409	c0.011-0.323,0.007-0.42,0.004-0.516c0-8.513-2.875-13.936-5-13.936c-0.564,0-1.187,0.389-1.796,1.127	c0.259-0.121,0.524-0.187,0.792-0.187c1.303,0,2.537,1.527,3.419,3.669c0.804,1.957,1.585,5.613,1.585,8.327c0,8.04-2.259,12-4,12	c-0.14,0-0.284-0.028-0.431-0.085c0.555,0.756,1.075,1.081,1.435,1.081C36.581,30.998,37.596,30.117,38.491,27.927z M36.283,26.962	c-0.097,0.027-0.196,0.04-0.297,0.04c-0.913,0-1.641-1.096-2.116-2.353c-0.517-1.368-0.884-3.304-0.884-5.644	c0-2.797,0.929-5.987,1.881-5.987c-0.144-0.283-0.291-0.507-0.429-0.676c-0.252-0.303-0.413-0.341-0.449-0.341	c-0.04,0-0.201,0.039-0.455,0.345c-0.237,0.289-0.493,0.744-0.728,1.363c-0.235,0.617-0.44,1.38-0.756,3.669	c-0.072,0.913-0.069,1.828-0.039,2.741c0.208,4.841,1.788,7.883,2.976,7.883C35.392,28.002,35.849,27.641,36.283,26.962z M36.433,25.662c0.237-0.287,0.493-0.736,0.729-1.353c0.351-0.921,0.639-2.171,0.757-3.661c0.063-0.877,0.088-1.755,0.047-2.623	c-0.216-4.984-1.793-8.023-2.98-8.023c-0.405,0-0.863,0.363-1.296,1.039c0.097-0.025,0.196-0.04,0.297-0.04	c0.904,0,1.635,1.084,2.113,2.339c0.52,1.364,0.892,3.3,0.892,5.659c0,0.029-0.001,0.123-0.001,0.205	c-0.015,3.479-1.068,5.581-1.885,5.784c0.143,0.28,0.287,0.503,0.425,0.671c0.253,0.307,0.415,0.344,0.453,0.344	C36.021,26.002,36.181,25.966,36.433,25.662z" clip-rule="evenodd"/></svg>