<svg xmlns="http://www.w3.org/2000/svg" baseProfile="basic" viewBox="0 0 48 48"><path fill-rule="evenodd" d="M4.008,44.501c0-1.927,0.54-3.5,1-3.5	h3.5c0.275,0,0.5-0.224,0.5-0.5c0-0.275-0.225-0.5-0.5-0.5h-2.34l4.84-30c0.759-4.711,2.233-6,13-6s12.241,1.289,13,6l4.839,30	h-2.349c-0.276,0-0.5,0.225-0.5,0.5c0,0.276,0.224,0.5,0.5,0.5h3.511c0.459,0,1,1.573,1,3.5c0,1.932-0.541,3.5-1,3.5h-38	C4.548,48.001,4.008,46.433,4.008,44.501z M15.008,47.001v-4.999H8.007v4.999H15.008z M15.007,39.001l1.507-17.292	c-0.615,0.741-1.5,1.292-2.58,1.292c-0.744,0-1.391-0.26-1.884-0.693l-0.105-0.116l-0.137,0.152	c-0.139,0.131-0.493,0.441-1.028,0.584L8.341,39.001H15.007z M11.157,19.501c0.252-0.828,0.24-1.5-0.027-1.5	c-0.267,0-0.689,0.672-0.941,1.5c-0.252,0.828-0.24,1.5,0.027,1.5C10.483,21.001,10.905,20.329,11.157,19.501z M15.436,19.501	c0.171-0.828-0.225-1.5-0.884-1.5c-0.659,0-1.332,0.672-1.503,1.5s0.225,1.5,0.884,1.5C14.592,21.001,15.265,20.329,15.436,19.501z M22.008,19.501c0-0.828-0.673-1.5-1.501-1.5c-0.828,0-1.501,0.672-1.501,1.5s0.673,1.5,1.501,1.5	C21.335,21.001,22.008,20.329,22.008,19.501z M29.008,19.501c0-0.828-0.673-1.5-1.501-1.5c-0.828,0-1.501,0.672-1.501,1.5	s0.673,1.5,1.501,1.5C28.335,21.001,29.008,20.329,29.008,19.501z M34.967,19.501c-0.171-0.828-0.844-1.5-1.503-1.5	c-0.179,0-0.339,0.051-0.472,0.139c0.459,0.237,0.849,0.759,0.975,1.361c0.124,0.604-0.053,1.125-0.413,1.363	c0.171,0.088,0.351,0.137,0.529,0.137C34.741,21.001,35.137,20.329,34.967,19.501z M14.313,15.001c0.287-1.104,0.031-2-0.573-2	s-1.329,0.896-1.616,2c-0.287,1.104-0.031,2,0.573,2C13.301,17.001,14.027,16.105,14.313,15.001z M19.437,15.001	c0.136-1.104-0.517-2-1.459-2c-0.941,0-1.819,0.896-1.955,2c-0.136,1.104,0.517,2,1.459,2S19.301,16.105,19.437,15.001z M26.009,15.001c0-1.104-0.897-2-2.001-2s-2.001,0.896-2.001,2s0.897,2,2.001,2S26.009,16.105,26.009,15.001z M31.989,15.001	c-0.136-1.104-1.013-2-1.955-2s-1.595,0.896-1.459,2c0.136,1.104,1.013,2,1.955,2C31.472,17.001,32.125,16.105,31.989,15.001z M35.889,15.001c-0.287-1.104-1.012-2-1.616-2c-0.181,0-0.329,0.08-0.443,0.221c0.44,0.332,0.857,1.004,1.059,1.779	c0.2,0.776,0.135,1.448-0.132,1.78c0.187,0.141,0.377,0.22,0.559,0.22C35.92,17.001,36.176,16.105,35.889,15.001z M12.759,10.001	c0.355-1.104,0.44-2,0.191-2s-0.74,0.896-1.095,2c-0.355,1.104-0.44,2-0.191,2C11.913,12.001,12.404,11.105,12.759,10.001z M17.439,10.001c0.136-1.104-0.517-2-1.459-2c-0.941,0-1.819,0.896-1.955,2s0.517,2,1.459,2S17.303,11.105,17.439,10.001z M23.011,10.001c0-1.104-0.897-2-2.001-2s-2.001,0.896-2.001,2s0.897,2,2.001,2S23.011,11.105,23.011,10.001z M29.008,10.001	c0-1.104-0.897-2-2.001-2s-2.001,0.896-2.001,2s0.897,2,2.001,2S29.008,11.105,29.008,10.001z M33.985,10.001	c-0.136-1.104-1.013-2-1.955-2c-0.175,0-0.339,0.031-0.489,0.088c0.729,0.251,1.332,1.012,1.444,1.912	c0.111,0.901-0.304,1.663-0.971,1.913c0.165,0.057,0.337,0.087,0.512,0.087C33.468,12.001,34.121,11.105,33.985,10.001z" clip-rule="evenodd"/><path fill-rule="evenodd" d="M5.008,47.998	c-1.375,0-5-0.221-5-0.499c0-0.279,3.625-0.499,5-0.499V47.998z" clip-rule="evenodd"/><path fill-rule="evenodd" d="M42.995,47.998	c1.375,0,5-0.221,5-0.499c0-0.279-3.625-0.499-5-0.499V47.998z" clip-rule="evenodd"/></svg>