<svg xmlns="http://www.w3.org/2000/svg" baseProfile="basic" viewBox="0 0 48 48"><path fill-rule="evenodd" d="M12.004,46.454V4.547	c0-0.853,0.633-1.547,1.413-1.547h6.147c-2.473,2.053-4.559,5.307-4.559,8c0,1.653,2,2.587,2,3v3c0,1.653,1.344,3,3,3h0.003	l-0.001,5h-0.652c-0.191,0-0.348,0.16-0.348,0.347v4.307c0,0.187,0.157,0.347,0.348,0.347h0.967	c0.347,0.627,0.952,1.133,1.683,1.467c0,0.013,0,0.027,0,0.027c0,1.533,0.696,2.507,1.217,2.507c0.231,0,0.553-0.187,0.827-0.72	c0.352-0.68,0.953-1.28,1.739-1.28c0.943,0,1.613,0.813,1.944,1.76c0.048,0.147,0.18,0.24,0.328,0.24h1.6	c0.189,0,0.348-0.16,0.348-0.347v-4.307c0-0.187-0.159-0.347-0.348-0.347h-0.676c0.008-0.08,0.012-0.16,0.012-0.24l0.001-8.76	c1.656,0,3.001-1.347,3.001-3v-3c0-0.427,2-1.32,2-3c0-2.693-2.081-5.947-4.555-8h6.149c0.78,0,1.413,0.693,1.413,1.547v41.907	c0,0.853-0.633,1.547-1.413,1.547H13.417C12.637,48.001,12.004,47.307,12.004,46.454z M27.008,43.494	c0-1.52-0.697-2.493-1.217-2.493c-0.232,0-0.555,0.187-0.828,0.72c-0.352,0.68-0.953,1.28-1.737,1.28	c-0.944,0-1.615-0.813-1.945-1.76c-0.048-0.147-0.18-0.24-0.327-0.24h-1.6c-0.191,0-0.348,0.16-0.348,0.347v4.307	c0,0.187,0.157,0.347,0.348,0.347h1.6c0.147,0,0.279-0.093,0.327-0.24c0.327-0.933,0.993-1.76,1.945-1.76	c0.78,0,1.388,0.6,1.737,1.28c0.273,0.533,0.596,0.72,0.828,0.72C26.32,46.001,27.008,45.014,27.008,43.494z M24.049,41.281	c0.352-0.68,0.953-1.28,1.739-1.28c0.943,0,1.613,0.813,1.944,1.76c0.048,0.147,0.18,0.24,0.328,0.24h1.6	c0.189,0,0.348-0.16,0.348-0.347v-4.307c0-0.187-0.159-0.347-0.348-0.347h-1.6c-0.148,0-0.28,0.093-0.328,0.24	c-0.327,0.933-0.993,1.76-1.944,1.76c-0.781,0-1.389-0.6-1.739-1.28c-0.273-0.533-0.596-0.72-0.827-0.72	c-0.531,0-1.217,0.987-1.217,2.493c0,1.533,0.696,2.507,1.217,2.507C23.453,42.001,23.776,41.814,24.049,41.281z M27.007,35.494	c0-1.52-0.697-2.493-1.217-2.493c-0.232,0-0.555,0.187-0.828,0.72c-0.352,0.68-0.953,1.28-1.737,1.28	c-0.944,0-1.615-0.813-1.945-1.76c-0.048-0.147-0.18-0.24-0.327-0.24h-1.6c-0.191,0-0.348,0.16-0.348,0.347v4.307	c0,0.187,0.157,0.347,0.348,0.347h1.6c0.147,0,0.279-0.093,0.327-0.24c0.327-0.933,0.993-1.76,1.945-1.76	c0.78,0,1.388,0.6,1.737,1.28c0.273,0.533,0.596,0.72,0.828,0.72C26.319,38.001,27.007,37.014,27.007,35.494z" clip-rule="evenodd"/><path fill-rule="evenodd" d="M18.005,17.001v-3c0-1.2-2-1.76-2-3	c0-3.8,4.904-9,8-9h0.992c3.096,0,8,5.2,8,9c0,1.24-2,1.8-2,3v3c0,1.107-0.897,2-2,2l0.001-3.547c0-1.933-1.252-3.573-2.993-4.187	V5.494c0-0.827-0.673-1.493-1.5-1.493c-0.828,0-1.5,0.667-1.5,1.493l-0.001,5.773c-1.743,0.6-2.993,2.253-2.993,4.187l-0.003,3.547	h-0.003C18.903,19.001,18.005,18.107,18.005,17.001z" clip-rule="evenodd"/><path fill-rule="evenodd" d="M21.005,28.627l0.005-13.08	c0-1.413,0.816-2.64,1.993-3.2l0.001,4.16c0,0.827,0.672,1.493,1.5,1.493c0.827,0,1.5-0.667,1.5-1.493v-4.16	c1.177,0.573,1.993,1.787,1.993,3.2l-0.004,13.08c0,1.347-1.615,2.373-3.495,2.373C22.62,31.001,21.005,29.974,21.005,28.627z" clip-rule="evenodd"/><path fill-rule="evenodd" d="M12.005,48.001	c-1.101,0-4-0.227-4-0.493c0-0.28,2.899-0.507,4-0.507h1l1,1H12.005z" clip-rule="evenodd"/><path fill-rule="evenodd" d="M36.995,48.001	c1.101,0,4-0.227,4-0.493c0-0.28-2.899-0.507-4-0.507h-1l-1,1H36.995z" clip-rule="evenodd"/></svg>